<mxfile host="65bd71144e">
    <diagram id="5PhhE58vstT3mlMqKfYu" name="Page-1">
        <mxGraphModel dx="-838" dy="736" grid="1" gridSize="10" guides="1" tooltips="1" connect="1" arrows="1" fold="1" page="1" pageScale="1" pageWidth="1654" pageHeight="2336" math="0" shadow="0">
            <root>
                <mxCell id="0"/>
                <mxCell id="1" parent="0"/>
                <mxCell id="386" value="films" style="rounded=0;whiteSpace=wrap;html=1;" parent="1" vertex="1">
                    <mxGeometry x="2500" y="735" width="120" height="60" as="geometry"/>
                </mxCell>
                <mxCell id="387" value="tv_series" style="rounded=0;whiteSpace=wrap;html=1;" parent="1" vertex="1">
                    <mxGeometry x="1760" y="735" width="120" height="60" as="geometry"/>
                </mxCell>
                <mxCell id="388" value="movies" style="rounded=0;whiteSpace=wrap;html=1;" parent="1" vertex="1">
                    <mxGeometry x="2130" y="735" width="120" height="60" as="geometry"/>
                </mxCell>
                <mxCell id="389" value="" style="endArrow=none;html=1;" parent="1" source="387" target="388" edge="1">
                    <mxGeometry width="50" height="50" relative="1" as="geometry">
                        <mxPoint x="2170" y="900" as="sourcePoint"/>
                        <mxPoint x="2220" y="850" as="targetPoint"/>
                    </mxGeometry>
                </mxCell>
                <mxCell id="390" value="" style="endArrow=none;html=1;entryX=1;entryY=0.5;entryDx=0;entryDy=0;" parent="1" source="386" target="388" edge="1">
                    <mxGeometry width="50" height="50" relative="1" as="geometry">
                        <mxPoint x="1890" y="775" as="sourcePoint"/>
                        <mxPoint x="2250" y="775" as="targetPoint"/>
                    </mxGeometry>
                </mxCell>
                <UserObject label="1" placeholders="1" name="Variable" id="391">
                    <mxCell style="text;html=1;strokeColor=none;fillColor=none;align=center;verticalAlign=middle;whiteSpace=wrap;overflow=hidden;" parent="1" vertex="1">
                        <mxGeometry x="1960" y="770" width="80" height="20" as="geometry"/>
                    </mxCell>
                </UserObject>
                <UserObject label="1" placeholders="1" name="Variable" id="392">
                    <mxCell style="text;html=1;strokeColor=none;fillColor=none;align=center;verticalAlign=middle;whiteSpace=wrap;overflow=hidden;" parent="1" vertex="1">
                        <mxGeometry x="1950" y="770" width="80" height="20" as="geometry"/>
                    </mxCell>
                </UserObject>
                <UserObject label="1" placeholders="1" name="Variable" id="393">
                    <mxCell style="text;html=1;strokeColor=none;fillColor=none;align=center;verticalAlign=middle;whiteSpace=wrap;overflow=hidden;" parent="1" vertex="1">
                        <mxGeometry x="2370" y="770" width="80" height="20" as="geometry"/>
                    </mxCell>
                </UserObject>
                <UserObject label="1" placeholders="1" name="Variable" id="394">
                    <mxCell style="text;html=1;strokeColor=none;fillColor=none;align=center;verticalAlign=middle;whiteSpace=wrap;overflow=hidden;" parent="1" vertex="1">
                        <mxGeometry x="2350" y="770" width="80" height="20" as="geometry"/>
                    </mxCell>
                </UserObject>
                <mxCell id="395" value="actors" style="rounded=0;whiteSpace=wrap;html=1;" parent="1" vertex="1">
                    <mxGeometry x="2110" y="1075" width="120" height="60" as="geometry"/>
                </mxCell>
                <mxCell id="396" value="" style="endArrow=none;html=1;" parent="1" source="387" target="395" edge="1">
                    <mxGeometry width="50" height="50" relative="1" as="geometry">
                        <mxPoint x="2270" y="1030" as="sourcePoint"/>
                        <mxPoint x="2320" y="980" as="targetPoint"/>
                    </mxGeometry>
                </mxCell>
                <mxCell id="397" value="" style="endArrow=none;html=1;" parent="1" source="386" target="395" edge="1">
                    <mxGeometry width="50" height="50" relative="1" as="geometry">
                        <mxPoint x="1864.5454545454545" y="805" as="sourcePoint"/>
                        <mxPoint x="2175.454545454545" y="1075" as="targetPoint"/>
                    </mxGeometry>
                </mxCell>
                <UserObject label="m" placeholders="1" name="Variable" id="398">
                    <mxCell style="text;html=1;strokeColor=none;fillColor=none;align=center;verticalAlign=middle;whiteSpace=wrap;overflow=hidden;" parent="1" vertex="1">
                        <mxGeometry x="1880" y="885" width="80" height="20" as="geometry"/>
                    </mxCell>
                </UserObject>
                <UserObject label="m" placeholders="1" name="Variable" id="399">
                    <mxCell style="text;html=1;strokeColor=none;fillColor=none;align=center;verticalAlign=middle;whiteSpace=wrap;overflow=hidden;" parent="1" vertex="1">
                        <mxGeometry x="1950" y="955" width="80" height="20" as="geometry"/>
                    </mxCell>
                </UserObject>
                <UserObject label="m" placeholders="1" name="Variable" id="400">
                    <mxCell style="text;html=1;strokeColor=none;fillColor=none;align=center;verticalAlign=middle;whiteSpace=wrap;overflow=hidden;" parent="1" vertex="1">
                        <mxGeometry x="2290" y="980" width="80" height="20" as="geometry"/>
                    </mxCell>
                </UserObject>
                <mxCell id="402" value="actor_films" style="rhombus;whiteSpace=wrap;html=1;" parent="1" vertex="1">
                    <mxGeometry x="2330" y="900" width="80" height="80" as="geometry"/>
                </mxCell>
                <mxCell id="403" value="actor_tv_series" style="rhombus;whiteSpace=wrap;html=1;" parent="1" vertex="1">
                    <mxGeometry x="1930" y="870" width="80" height="80" as="geometry"/>
                </mxCell>
                <mxCell id="404" value="oscar_winners" style="rounded=0;whiteSpace=wrap;html=1;" parent="1" vertex="1">
                    <mxGeometry x="2550" y="1200" width="120" height="60" as="geometry"/>
                </mxCell>
                <mxCell id="405" value="" style="endArrow=none;html=1;" parent="1" source="404" target="402" edge="1">
                    <mxGeometry width="50" height="50" relative="1" as="geometry">
                        <mxPoint x="2470" y="1030" as="sourcePoint"/>
                        <mxPoint x="2520" y="980" as="targetPoint"/>
                    </mxGeometry>
                </mxCell>
                <UserObject label="1" placeholders="1" name="Variable" id="406">
                    <mxCell style="text;html=1;strokeColor=none;fillColor=none;align=center;verticalAlign=middle;whiteSpace=wrap;overflow=hidden;" parent="1" vertex="1">
                        <mxGeometry x="2400" y="1050" width="80" height="20" as="geometry"/>
                    </mxCell>
                </UserObject>
                <UserObject label="1" placeholders="1" name="Variable" id="407">
                    <mxCell style="text;html=1;strokeColor=none;fillColor=none;align=center;verticalAlign=middle;whiteSpace=wrap;overflow=hidden;" parent="1" vertex="1">
                        <mxGeometry x="2420" y="1085" width="80" height="20" as="geometry"/>
                    </mxCell>
                </UserObject>
                <mxCell id="408" value="directors" style="rounded=0;whiteSpace=wrap;html=1;" parent="1" vertex="1">
                    <mxGeometry x="2790" y="520" width="120" height="60" as="geometry"/>
                </mxCell>
                <mxCell id="409" value="" style="endArrow=none;html=1;" parent="1" source="408" target="386" edge="1">
                    <mxGeometry width="50" height="50" relative="1" as="geometry">
                        <mxPoint x="2590" y="890" as="sourcePoint"/>
                        <mxPoint x="2640" y="840" as="targetPoint"/>
                    </mxGeometry>
                </mxCell>
                <UserObject label="m" placeholders="1" name="Variable" id="410">
                    <mxCell style="text;html=1;strokeColor=none;fillColor=none;align=center;verticalAlign=middle;whiteSpace=wrap;overflow=hidden;" parent="1" vertex="1">
                        <mxGeometry x="2620" y="770" width="80" height="20" as="geometry"/>
                    </mxCell>
                </UserObject>
                <UserObject label="1" placeholders="1" name="Variable" id="412">
                    <mxCell style="text;html=1;strokeColor=none;fillColor=none;align=center;verticalAlign=middle;whiteSpace=wrap;overflow=hidden;" parent="1" vertex="1">
                        <mxGeometry x="2710" y="580" width="80" height="20" as="geometry"/>
                    </mxCell>
                </UserObject>
                <mxCell id="413" value="sequels" style="rounded=0;whiteSpace=wrap;html=1;" parent="1" vertex="1">
                    <mxGeometry x="2440" y="535" width="120" height="60" as="geometry"/>
                </mxCell>
                <mxCell id="414" value="" style="endArrow=none;html=1;exitX=0.25;exitY=0;exitDx=0;exitDy=0;entryX=0.25;entryY=1;entryDx=0;entryDy=0;" parent="1" source="386" target="413" edge="1">
                    <mxGeometry width="50" height="50" relative="1" as="geometry">
                        <mxPoint x="2510" y="900" as="sourcePoint"/>
                        <mxPoint x="2560" y="850" as="targetPoint"/>
                    </mxGeometry>
                </mxCell>
                <mxCell id="415" value="" style="endArrow=none;html=1;exitX=0.75;exitY=0;exitDx=0;exitDy=0;entryX=0.75;entryY=1;entryDx=0;entryDy=0;" parent="1" source="386" target="413" edge="1">
                    <mxGeometry width="50" height="50" relative="1" as="geometry">
                        <mxPoint x="2540" y="745" as="sourcePoint"/>
                        <mxPoint x="2540" y="620" as="targetPoint"/>
                    </mxGeometry>
                </mxCell>
                <UserObject label="m" placeholders="1" name="Variable" id="418">
                    <mxCell style="text;html=1;strokeColor=none;fillColor=none;align=center;verticalAlign=middle;whiteSpace=wrap;overflow=hidden;" parent="1" vertex="1">
                        <mxGeometry x="2440" y="595" width="80" height="20" as="geometry"/>
                    </mxCell>
                </UserObject>
                <UserObject label="m" placeholders="1" name="Variable" id="419">
                    <mxCell style="text;html=1;strokeColor=none;fillColor=none;align=center;verticalAlign=middle;whiteSpace=wrap;overflow=hidden;" parent="1" vertex="1">
                        <mxGeometry x="2480" y="595" width="80" height="20" as="geometry"/>
                    </mxCell>
                </UserObject>
                <mxCell id="420" value="critics" style="rounded=0;whiteSpace=wrap;html=1;" parent="1" vertex="1">
                    <mxGeometry x="2890" y="990" width="120" height="60" as="geometry"/>
                </mxCell>
                <mxCell id="421" value="" style="endArrow=none;html=1;exitX=0;exitY=0.5;exitDx=0;exitDy=0;" parent="1" source="422" target="386" edge="1">
                    <mxGeometry width="50" height="50" relative="1" as="geometry">
                        <mxPoint x="2580" y="1000" as="sourcePoint"/>
                        <mxPoint x="2630" y="950" as="targetPoint"/>
                    </mxGeometry>
                </mxCell>
                <mxCell id="422" value="film_critics" style="rhombus;whiteSpace=wrap;html=1;" parent="1" vertex="1">
                    <mxGeometry x="2870" y="735" width="80" height="80" as="geometry"/>
                </mxCell>
                <UserObject label="m" placeholders="1" name="Variable" id="423">
                    <mxCell style="text;html=1;strokeColor=none;fillColor=none;align=center;verticalAlign=middle;whiteSpace=wrap;overflow=hidden;" parent="1" vertex="1">
                        <mxGeometry x="2800" y="750" width="80" height="20" as="geometry"/>
                    </mxCell>
                </UserObject>
                <UserObject label="m" placeholders="1" name="Variable" id="424">
                    <mxCell style="text;html=1;strokeColor=none;fillColor=none;align=center;verticalAlign=middle;whiteSpace=wrap;overflow=hidden;" parent="1" vertex="1">
                        <mxGeometry x="2920" y="790" width="80" height="20" as="geometry"/>
                    </mxCell>
                </UserObject>
                <mxCell id="425" value="" style="endArrow=none;html=1;entryX=0;entryY=0.5;entryDx=0;entryDy=0;" parent="1" source="402" target="426" edge="1">
                    <mxGeometry width="50" height="50" relative="1" as="geometry">
                        <mxPoint x="2740" y="940" as="sourcePoint"/>
                        <mxPoint x="2790" y="890" as="targetPoint"/>
                    </mxGeometry>
                </mxCell>
                <mxCell id="426" value="actor_critics" style="rhombus;whiteSpace=wrap;html=1;" parent="1" vertex="1">
                    <mxGeometry x="2630" y="985" width="80" height="80" as="geometry"/>
                </mxCell>
                <UserObject label="m" placeholders="1" name="Variable" id="427">
                    <mxCell style="text;html=1;strokeColor=none;fillColor=none;align=center;verticalAlign=middle;whiteSpace=wrap;overflow=hidden;" parent="1" vertex="1">
                        <mxGeometry x="2520" y="1010" width="80" height="20" as="geometry"/>
                    </mxCell>
                </UserObject>
                <UserObject label="m" placeholders="1" name="Variable" id="428">
                    <mxCell style="text;html=1;strokeColor=none;fillColor=none;align=center;verticalAlign=middle;whiteSpace=wrap;overflow=hidden;" parent="1" vertex="1">
                        <mxGeometry x="2700" y="1035" width="80" height="20" as="geometry"/>
                    </mxCell>
                </UserObject>
                <mxCell id="429" value="" style="endArrow=none;html=1;entryX=0;entryY=0.5;entryDx=0;entryDy=0;exitX=1;exitY=0.5;exitDx=0;exitDy=0;" parent="1" source="426" target="420" edge="1">
                    <mxGeometry width="50" height="50" relative="1" as="geometry">
                        <mxPoint x="2414.0983606557375" y="955.9016393442623" as="sourcePoint"/>
                        <mxPoint x="2640" y="994.9999999999998" as="targetPoint"/>
                    </mxGeometry>
                </mxCell>
                <mxCell id="430" value="" style="endArrow=none;html=1;exitX=0.5;exitY=1;exitDx=0;exitDy=0;" parent="1" source="422" target="420" edge="1">
                    <mxGeometry width="50" height="50" relative="1" as="geometry">
                        <mxPoint x="2770" y="910.0000000000002" as="sourcePoint"/>
                        <mxPoint x="2630" y="805" as="targetPoint"/>
                    </mxGeometry>
                </mxCell>
                <mxCell id="433" value="name" style="ellipse;whiteSpace=wrap;html=1;" parent="1" vertex="1">
                    <mxGeometry x="2110" y="670" width="90" height="30" as="geometry"/>
                </mxCell>
                <mxCell id="434" value="premiere&lt;span style=&quot;color: rgba(0, 0, 0, 0); font-family: monospace; font-size: 0px; text-align: start;&quot;&gt;%3CmxGraphModel%3E%3Croot%3E%3CmxCell%20id%3D%220%22%2F%3E%3CmxCell%20id%3D%221%22%20parent%3D%220%22%2F%3E%3CmxCell%20id%3D%222%22%20value%3D%22name%22%20style%3D%22ellipse%3BwhiteSpace%3Dwrap%3Bhtml%3D1%3B%22%20vertex%3D%221%22%20parent%3D%221%22%3E%3CmxGeometry%20x%3D%22430%22%20y%3D%22430%22%20width%3D%2290%22%20height%3D%2230%22%20as%3D%22geometry%22%2F%3E%3C%2FmxCell%3E%3C%2Froot%3E%3C%2FmxGraphModel%3E&lt;/span&gt;" style="ellipse;whiteSpace=wrap;html=1;" parent="1" vertex="1">
                    <mxGeometry x="2040" y="790" width="90" height="30" as="geometry"/>
                </mxCell>
                <mxCell id="435" value="genre" style="ellipse;whiteSpace=wrap;html=1;" parent="1" vertex="1">
                    <mxGeometry x="2040" y="710" width="90" height="30" as="geometry"/>
                </mxCell>
                <mxCell id="436" value="origin_country&lt;span style=&quot;color: rgba(0, 0, 0, 0); font-family: monospace; font-size: 0px; text-align: start;&quot;&gt;%3CmxGraphModel%3E%3Croot%3E%3CmxCell%20id%3D%220%22%2F%3E%3CmxCell%20id%3D%221%22%20parent%3D%220%22%2F%3E%3CmxCell%20id%3D%222%22%20value%3D%22genre%22%20style%3D%22ellipse%3BwhiteSpace%3Dwrap%3Bhtml%3D1%3B%22%20vertex%3D%221%22%20parent%3D%221%22%3E%3CmxGeometry%20x%3D%22710%22%20y%3D%22490%22%20width%3D%2290%22%20height%3D%2230%22%20as%3D%22geometry%22%2F%3E%3C%2FmxCell%3E%3C%2Froot%3E%3C%2FmxGraphModel%3E&lt;/span&gt;" style="ellipse;whiteSpace=wrap;html=1;" parent="1" vertex="1">
                    <mxGeometry x="2145" y="820" width="90" height="30" as="geometry"/>
                </mxCell>
                <mxCell id="437" value="name_of_production" style="ellipse;whiteSpace=wrap;html=1;" parent="1" vertex="1">
                    <mxGeometry x="2210" y="680" width="120" height="40" as="geometry"/>
                </mxCell>
                <mxCell id="441" value="salary" style="ellipse;whiteSpace=wrap;html=1;" parent="1" vertex="1">
                    <mxGeometry x="1850" y="935" width="90" height="30" as="geometry"/>
                </mxCell>
                <mxCell id="442" value="salary" style="ellipse;whiteSpace=wrap;html=1;" parent="1" vertex="1">
                    <mxGeometry x="2260" y="885" width="90" height="30" as="geometry"/>
                </mxCell>
                <mxCell id="444" value="firstname" style="ellipse;whiteSpace=wrap;html=1;" parent="1" vertex="1">
                    <mxGeometry x="2860" y="470" width="90" height="30" as="geometry"/>
                </mxCell>
                <mxCell id="445" value="lastname" style="ellipse;whiteSpace=wrap;html=1;" parent="1" vertex="1">
                    <mxGeometry x="2940" y="510" width="90" height="30" as="geometry"/>
                </mxCell>
                <mxCell id="446" value="genre" style="ellipse;whiteSpace=wrap;html=1;" parent="1" vertex="1">
                    <mxGeometry x="2940" y="570" width="90" height="30" as="geometry"/>
                </mxCell>
                <mxCell id="447" value="expertise" style="ellipse;whiteSpace=wrap;html=1;" parent="1" vertex="1">
                    <mxGeometry x="2840" y="605" width="90" height="30" as="geometry"/>
                </mxCell>
                <UserObject label="m" placeholders="1" name="Variable" id="448">
                    <mxCell style="text;html=1;strokeColor=none;fillColor=none;align=center;verticalAlign=middle;whiteSpace=wrap;overflow=hidden;" parent="1" vertex="1">
                        <mxGeometry x="2590" y="690" width="80" height="20" as="geometry"/>
                    </mxCell>
                </UserObject>
                <mxCell id="449" value="aired_channel" style="ellipse;whiteSpace=wrap;html=1;" parent="1" vertex="1">
                    <mxGeometry x="1670" y="805" width="90" height="30" as="geometry"/>
                </mxCell>
                <mxCell id="450" value="episodes_number" style="ellipse;whiteSpace=wrap;html=1;" parent="1" vertex="1">
                    <mxGeometry x="1680" y="670" width="110" height="40" as="geometry"/>
                </mxCell>
                <mxCell id="451" value="number_of_expected_seasons" style="ellipse;whiteSpace=wrap;html=1;" parent="1" vertex="1">
                    <mxGeometry x="1830" y="660" width="190" height="50" as="geometry"/>
                </mxCell>
                <mxCell id="452" value="movie_id" style="ellipse;whiteSpace=wrap;html=1;" parent="1" vertex="1">
                    <mxGeometry x="1790" y="825" width="90" height="30" as="geometry"/>
                </mxCell>
                <mxCell id="453" value="city_premiere" style="ellipse;whiteSpace=wrap;html=1;" parent="1" vertex="1">
                    <mxGeometry x="2390" y="695" width="120" height="40" as="geometry"/>
                </mxCell>
                <mxCell id="454" value="first_week_income" style="ellipse;whiteSpace=wrap;html=1;" parent="1" vertex="1">
                    <mxGeometry x="2660" y="715" width="120" height="40" as="geometry"/>
                </mxCell>
                <mxCell id="455" value="format" style="ellipse;whiteSpace=wrap;html=1;" parent="1" vertex="1">
                    <mxGeometry x="2680" y="785" width="90" height="30" as="geometry"/>
                </mxCell>
                <mxCell id="456" value="movie_id" style="ellipse;whiteSpace=wrap;html=1;" parent="1" vertex="1">
                    <mxGeometry x="2515" y="815" width="90" height="30" as="geometry"/>
                </mxCell>
                <mxCell id="457" value="director_id" style="ellipse;whiteSpace=wrap;html=1;" parent="1" vertex="1">
                    <mxGeometry x="2405" y="795" width="90" height="30" as="geometry"/>
                </mxCell>
                <mxCell id="458" value="director_income" style="ellipse;whiteSpace=wrap;html=1;" parent="1" vertex="1">
                    <mxGeometry x="2620" y="825" width="90" height="30" as="geometry"/>
                </mxCell>
                <mxCell id="460" value="firstname" style="ellipse;whiteSpace=wrap;html=1;" parent="1" vertex="1">
                    <mxGeometry x="2010" y="1055" width="90" height="30" as="geometry"/>
                </mxCell>
                <mxCell id="461" value="lastname" style="ellipse;whiteSpace=wrap;html=1;" parent="1" vertex="1">
                    <mxGeometry x="2010" y="1100" width="90" height="30" as="geometry"/>
                </mxCell>
                <mxCell id="462" value="nickname" style="ellipse;whiteSpace=wrap;html=1;" parent="1" vertex="1">
                    <mxGeometry x="2060" y="1148" width="90" height="30" as="geometry"/>
                </mxCell>
                <mxCell id="463" value="date_od_birth" style="ellipse;whiteSpace=wrap;html=1;" parent="1" vertex="1">
                    <mxGeometry x="2150" y="1163" width="90" height="30" as="geometry"/>
                </mxCell>
                <mxCell id="464" value="agent_code" style="ellipse;whiteSpace=wrap;html=1;" parent="1" vertex="1">
                    <mxGeometry x="2250" y="1130" width="90" height="30" as="geometry"/>
                </mxCell>
                <mxCell id="466" value="actors_movies_id" style="ellipse;whiteSpace=wrap;html=1;" parent="1" vertex="1">
                    <mxGeometry x="2545" y="1295.56" width="120" height="50" as="geometry"/>
                </mxCell>
                <mxCell id="467" value="" style="endArrow=none;html=1;exitX=0.5;exitY=1;exitDx=0;exitDy=0;" parent="1" source="404" target="466" edge="1">
                    <mxGeometry width="50" height="50" relative="1" as="geometry">
                        <mxPoint x="2601.4285714285716" y="1245.56" as="sourcePoint"/>
                        <mxPoint x="2501.764705882353" y="1015.56" as="targetPoint"/>
                    </mxGeometry>
                </mxCell>
                <mxCell id="468" value="actor_role" style="ellipse;whiteSpace=wrap;html=1;" parent="1" vertex="1">
                    <mxGeometry x="2415" y="1265.56" width="90" height="30" as="geometry"/>
                </mxCell>
                <mxCell id="469" value="" style="endArrow=none;html=1;" parent="1" source="404" target="468" edge="1">
                    <mxGeometry width="50" height="50" relative="1" as="geometry">
                        <mxPoint x="2540" y="1243.4171428571428" as="sourcePoint"/>
                        <mxPoint x="2470" y="1215.56" as="targetPoint"/>
                    </mxGeometry>
                </mxCell>
                <mxCell id="470" value="year_of_award" style="ellipse;whiteSpace=wrap;html=1;" parent="1" vertex="1">
                    <mxGeometry x="2690" y="1255.56" width="90" height="30" as="geometry"/>
                </mxCell>
                <mxCell id="471" value="" style="endArrow=none;html=1;exitX=1;exitY=0.5;exitDx=0;exitDy=0;" parent="1" source="404" target="470" edge="1">
                    <mxGeometry width="50" height="50" relative="1" as="geometry">
                        <mxPoint x="2660" y="1240.004444444444" as="sourcePoint"/>
                        <mxPoint x="2621.567407307416" y="1275.6037032680288" as="targetPoint"/>
                    </mxGeometry>
                </mxCell>
                <mxCell id="472" value="firstname&lt;span style=&quot;color: rgba(0, 0, 0, 0); font-family: monospace; font-size: 0px; text-align: start;&quot;&gt;%3CmxGraphModel%3E%3Croot%3E%3CmxCell%20id%3D%220%22%2F%3E%3CmxCell%20id%3D%221%22%20parent%3D%220%22%2F%3E%3CmxCell%20id%3D%222%22%20value%3D%22expertise%22%20style%3D%22ellipse%3BwhiteSpace%3Dwrap%3Bhtml%3D1%3B%22%20vertex%3D%221%22%20parent%3D%221%22%3E%3CmxGeometry%20x%3D%22970%22%20y%3D%22740%22%20width%3D%2290%22%20height%3D%2230%22%20as%3D%22geometry%22%2F%3E%3C%2FmxCell%3E%3C%2Froot%3E%3C%2FmxGraphModel%3E&lt;/span&gt;" style="ellipse;whiteSpace=wrap;html=1;" parent="1" vertex="1">
                    <mxGeometry x="2980" y="945" width="90" height="30" as="geometry"/>
                </mxCell>
                <mxCell id="473" value="lastname&lt;span style=&quot;color: rgba(0, 0, 0, 0); font-family: monospace; font-size: 0px; text-align: start;&quot;&gt;%3CmxGraphModel%3E%3Croot%3E%3CmxCell%20id%3D%220%22%2F%3E%3CmxCell%20id%3D%221%22%20parent%3D%220%22%2F%3E%3CmxCell%20id%3D%222%22%20value%3D%22firstname%26lt%3Bspan%20style%3D%26quot%3Bcolor%3A%20rgba(0%2C%200%2C%200%2C%200)%3B%20font-family%3A%20monospace%3B%20font-size%3A%200px%3B%20text-align%3A%20start%3B%26quot%3B%26gt%3B%253CmxGraphModel%253E%253Croot%253E%253CmxCell%2520id%253D%25220%2522%252F%253E%253CmxCell%2520id%253D%25221%2522%2520parent%253D%25220%2522%252F%253E%253CmxCell%2520id%253D%25222%2522%2520value%253D%2522expertise%2522%2520style%253D%2522ellipse%253BwhiteSpace%253Dwrap%253Bhtml%253D1%253B%2522%2520vertex%253D%25221%2522%2520parent%253D%25221%2522%253E%253CmxGeometry%2520x%253D%2522970%2522%2520y%253D%2522740%2522%2520width%253D%252290%2522%2520height%253D%252230%2522%2520as%253D%2522geometry%2522%252F%253E%253C%252FmxCell%253E%253C%252Froot%253E%253C%252FmxGraphModel%253E%26lt%3B%2Fspan%26gt%3B%22%20style%3D%22ellipse%3BwhiteSpace%3Dwrap%3Bhtml%3D1%3B%22%20vertex%3D%221%22%20parent%3D%221%22%3E%3CmxGeometry%20x%3D%22805%22%20y%3D%22890%22%20width%3D%2290%22%20height%3D%2230%22%20as%3D%22geometry%22%2F%3E%3C%2FmxCell%3E%3C%2Froot%3E%3C%2FmxGraphModel%3E&lt;/span&gt;" style="ellipse;whiteSpace=wrap;html=1;" parent="1" vertex="1">
                    <mxGeometry x="3030" y="1000" width="90" height="30" as="geometry"/>
                </mxCell>
                <mxCell id="474" value="username" style="ellipse;whiteSpace=wrap;html=1;" parent="1" vertex="1">
                    <mxGeometry x="2915" y="1085" width="90" height="30" as="geometry"/>
                </mxCell>
                <mxCell id="475" value="password" style="ellipse;whiteSpace=wrap;html=1;" parent="1" vertex="1">
                    <mxGeometry x="3020" y="1065" width="90" height="30" as="geometry"/>
                </mxCell>
                <mxCell id="477" value="rating" style="ellipse;whiteSpace=wrap;html=1;" parent="1" vertex="1">
                    <mxGeometry x="2940" y="710" width="90" height="30" as="geometry"/>
                </mxCell>
                <mxCell id="480" value="acting_grade" style="ellipse;whiteSpace=wrap;html=1;" parent="1" vertex="1">
                    <mxGeometry x="2565" y="1060" width="90" height="30" as="geometry"/>
                </mxCell>
                <mxCell id="481" value="expresion_grade" style="ellipse;whiteSpace=wrap;html=1;" parent="1" vertex="1">
                    <mxGeometry x="2665" y="930" width="90" height="30" as="geometry"/>
                </mxCell>
                <mxCell id="482" value="naturalness_grade" style="ellipse;whiteSpace=wrap;html=1;" parent="1" vertex="1">
                    <mxGeometry x="2550" y="935" width="100" height="35" as="geometry"/>
                </mxCell>
                <mxCell id="483" value="devotion_grade" style="ellipse;whiteSpace=wrap;html=1;" parent="1" vertex="1">
                    <mxGeometry x="2730" y="970" width="90" height="30" as="geometry"/>
                </mxCell>
                <mxCell id="486" value="" style="endArrow=none;html=1;" parent="1" source="451" target="387" edge="1">
                    <mxGeometry width="50" height="50" relative="1" as="geometry">
                        <mxPoint x="2080" y="920" as="sourcePoint"/>
                        <mxPoint x="2130" y="870" as="targetPoint"/>
                    </mxGeometry>
                </mxCell>
                <mxCell id="487" value="" style="endArrow=none;html=1;" parent="1" source="450" target="387" edge="1">
                    <mxGeometry width="50" height="50" relative="1" as="geometry">
                        <mxPoint x="1878.2208812029057" y="719.0465672831886" as="sourcePoint"/>
                        <mxPoint x="1856" y="745" as="targetPoint"/>
                    </mxGeometry>
                </mxCell>
                <mxCell id="488" value="" style="endArrow=none;html=1;exitX=0.5;exitY=0;exitDx=0;exitDy=0;" parent="1" source="449" target="387" edge="1">
                    <mxGeometry width="50" height="50" relative="1" as="geometry">
                        <mxPoint x="1766.1070020888824" y="718.4686268277721" as="sourcePoint"/>
                        <mxPoint x="1796" y="745" as="targetPoint"/>
                    </mxGeometry>
                </mxCell>
                <mxCell id="489" value="" style="endArrow=none;html=1;exitX=0.5;exitY=0;exitDx=0;exitDy=0;" parent="1" source="452" target="387" edge="1">
                    <mxGeometry width="50" height="50" relative="1" as="geometry">
                        <mxPoint x="1725" y="815" as="sourcePoint"/>
                        <mxPoint x="1770" y="797.8571428571429" as="targetPoint"/>
                    </mxGeometry>
                </mxCell>
                <mxCell id="490" value="" style="endArrow=none;html=1;" parent="1" source="441" target="403" edge="1">
                    <mxGeometry width="50" height="50" relative="1" as="geometry">
                        <mxPoint x="1735" y="825" as="sourcePoint"/>
                        <mxPoint x="1780" y="807.8571428571429" as="targetPoint"/>
                    </mxGeometry>
                </mxCell>
                <mxCell id="491" value="" style="endArrow=none;html=1;" parent="1" source="460" target="395" edge="1">
                    <mxGeometry width="50" height="50" relative="1" as="geometry">
                        <mxPoint x="1715" y="845" as="sourcePoint"/>
                        <mxPoint x="1760" y="827.8571428571429" as="targetPoint"/>
                    </mxGeometry>
                </mxCell>
                <mxCell id="492" value="" style="endArrow=none;html=1;" parent="1" source="461" target="395" edge="1">
                    <mxGeometry width="50" height="50" relative="1" as="geometry">
                        <mxPoint x="2099.027590710852" y="1089.8156511665923" as="sourcePoint"/>
                        <mxPoint x="2120" y="1096.7391304347827" as="targetPoint"/>
                    </mxGeometry>
                </mxCell>
                <mxCell id="493" value="" style="endArrow=none;html=1;" parent="1" source="462" target="395" edge="1">
                    <mxGeometry width="50" height="50" relative="1" as="geometry">
                        <mxPoint x="2099.523522646771" y="1115.378690409916" as="sourcePoint"/>
                        <mxPoint x="2130" y="1106.7391304347827" as="targetPoint"/>
                    </mxGeometry>
                </mxCell>
                <mxCell id="494" value="" style="endArrow=none;html=1;" parent="1" source="395" target="463" edge="1">
                    <mxGeometry width="50" height="50" relative="1" as="geometry">
                        <mxPoint x="2108.8476038062518" y="1121.6271073995192" as="sourcePoint"/>
                        <mxPoint x="2120" y="1120.217391304348" as="targetPoint"/>
                    </mxGeometry>
                </mxCell>
                <mxCell id="495" value="" style="endArrow=none;html=1;" parent="1" source="395" target="464" edge="1">
                    <mxGeometry width="50" height="50" relative="1" as="geometry">
                        <mxPoint x="2190.344283001847" y="1145" as="sourcePoint"/>
                        <mxPoint x="2200.0305813267073" y="1173.0917439801221" as="targetPoint"/>
                    </mxGeometry>
                </mxCell>
                <mxCell id="496" value="" style="endArrow=none;html=1;" parent="1" target="436" edge="1">
                    <mxGeometry width="50" height="50" relative="1" as="geometry">
                        <mxPoint x="2190" y="795" as="sourcePoint"/>
                        <mxPoint x="2190" y="830" as="targetPoint"/>
                    </mxGeometry>
                </mxCell>
                <mxCell id="497" value="" style="endArrow=none;html=1;" parent="1" source="453" target="386" edge="1">
                    <mxGeometry width="50" height="50" relative="1" as="geometry">
                        <mxPoint x="2520" y="870" as="sourcePoint"/>
                        <mxPoint x="2570" y="820" as="targetPoint"/>
                    </mxGeometry>
                </mxCell>
                <mxCell id="498" value="" style="endArrow=none;html=1;" parent="1" source="457" target="386" edge="1">
                    <mxGeometry width="50" height="50" relative="1" as="geometry">
                        <mxPoint x="2495.8777464480377" y="741.0304824555062" as="sourcePoint"/>
                        <mxPoint x="2510" y="747.7272727272727" as="targetPoint"/>
                    </mxGeometry>
                </mxCell>
                <mxCell id="499" value="" style="endArrow=none;html=1;exitX=0.686;exitY=0.088;exitDx=0;exitDy=0;exitPerimeter=0;" parent="1" source="456" target="386" edge="1">
                    <mxGeometry width="50" height="50" relative="1" as="geometry">
                        <mxPoint x="2488.6281712237346" y="808.4269095052987" as="sourcePoint"/>
                        <mxPoint x="2510" y="799.5454545454545" as="targetPoint"/>
                    </mxGeometry>
                </mxCell>
                <mxCell id="500" value="" style="endArrow=none;html=1;exitX=0.5;exitY=0;exitDx=0;exitDy=0;" parent="1" source="458" target="386" edge="1">
                    <mxGeometry width="50" height="50" relative="1" as="geometry">
                        <mxPoint x="2586.74" y="827.6400000000001" as="sourcePoint"/>
                        <mxPoint x="2579.5402735562307" y="805" as="targetPoint"/>
                    </mxGeometry>
                </mxCell>
                <mxCell id="501" value="" style="endArrow=none;html=1;exitX=0;exitY=1;exitDx=0;exitDy=0;" parent="1" source="455" target="386" edge="1">
                    <mxGeometry width="50" height="50" relative="1" as="geometry">
                        <mxPoint x="2675" y="835" as="sourcePoint"/>
                        <mxPoint x="2622.5" y="805" as="targetPoint"/>
                    </mxGeometry>
                </mxCell>
                <mxCell id="502" value="" style="endArrow=none;html=1;" parent="1" source="454" target="386" edge="1">
                    <mxGeometry width="50" height="50" relative="1" as="geometry">
                        <mxPoint x="2703.180194846606" y="820.6066017177984" as="sourcePoint"/>
                        <mxPoint x="2630" y="795.5465693019869" as="targetPoint"/>
                    </mxGeometry>
                </mxCell>
                <mxCell id="504" value="" style="endArrow=none;html=1;" parent="1" source="388" target="434" edge="1">
                    <mxGeometry width="50" height="50" relative="1" as="geometry">
                        <mxPoint x="2200" y="805" as="sourcePoint"/>
                        <mxPoint x="2200" y="830" as="targetPoint"/>
                    </mxGeometry>
                </mxCell>
                <mxCell id="505" value="" style="endArrow=none;html=1;" parent="1" source="433" target="388" edge="1">
                    <mxGeometry width="50" height="50" relative="1" as="geometry">
                        <mxPoint x="2120" y="799.1194654276266" as="sourcePoint"/>
                        <mxPoint x="2104.5058994950687" y="805.004503224115" as="targetPoint"/>
                    </mxGeometry>
                </mxCell>
                <mxCell id="506" value="" style="endArrow=none;html=1;" parent="1" source="435" target="388" edge="1">
                    <mxGeometry width="50" height="50" relative="1" as="geometry">
                        <mxPoint x="2130" y="809.1194654276264" as="sourcePoint"/>
                        <mxPoint x="2114.5058994950687" y="815.0045032241151" as="targetPoint"/>
                    </mxGeometry>
                </mxCell>
                <mxCell id="509" value="" style="endArrow=none;html=1;exitX=0;exitY=1;exitDx=0;exitDy=0;" parent="1" source="437" target="388" edge="1">
                    <mxGeometry width="50" height="50" relative="1" as="geometry">
                        <mxPoint x="2171.3197198538296" y="709.8513416564999" as="sourcePoint"/>
                        <mxPoint x="2186.875" y="745" as="targetPoint"/>
                    </mxGeometry>
                </mxCell>
                <mxCell id="511" value="" style="endArrow=none;html=1;" parent="1" source="402" target="442" edge="1">
                    <mxGeometry width="50" height="50" relative="1" as="geometry">
                        <mxPoint x="2240" y="910" as="sourcePoint"/>
                        <mxPoint x="2290" y="860" as="targetPoint"/>
                    </mxGeometry>
                </mxCell>
                <mxCell id="520" value="" style="endArrow=none;html=1;" parent="1" source="408" target="444" edge="1">
                    <mxGeometry width="50" height="50" relative="1" as="geometry">
                        <mxPoint x="2560" y="665" as="sourcePoint"/>
                        <mxPoint x="2610" y="615" as="targetPoint"/>
                    </mxGeometry>
                </mxCell>
                <mxCell id="521" value="" style="endArrow=none;html=1;" parent="1" source="408" target="445" edge="1">
                    <mxGeometry width="50" height="50" relative="1" as="geometry">
                        <mxPoint x="2885.330646328147" y="530" as="sourcePoint"/>
                        <mxPoint x="2902.7000437695074" y="509.4287948088479" as="targetPoint"/>
                    </mxGeometry>
                </mxCell>
                <mxCell id="522" value="" style="endArrow=none;html=1;" parent="1" source="408" target="446" edge="1">
                    <mxGeometry width="50" height="50" relative="1" as="geometry">
                        <mxPoint x="2920" y="548.7519103162665" as="sourcePoint"/>
                        <mxPoint x="2955.3887416850457" y="542.1176479784685" as="targetPoint"/>
                    </mxGeometry>
                </mxCell>
                <mxCell id="523" value="" style="endArrow=none;html=1;exitX=0.75;exitY=1;exitDx=0;exitDy=0;" parent="1" source="408" target="447" edge="1">
                    <mxGeometry width="50" height="50" relative="1" as="geometry">
                        <mxPoint x="2920" y="575.5866396387548" as="sourcePoint"/>
                        <mxPoint x="2959.404410122692" y="585.8230119847567" as="targetPoint"/>
                    </mxGeometry>
                </mxCell>
                <mxCell id="527" value="" style="endArrow=none;html=1;" parent="1" source="426" target="482" edge="1">
                    <mxGeometry width="50" height="50" relative="1" as="geometry">
                        <mxPoint x="2586.74" y="827.6400000000001" as="sourcePoint"/>
                        <mxPoint x="2579.5402735562307" y="805" as="targetPoint"/>
                    </mxGeometry>
                </mxCell>
                <mxCell id="531" value="" style="endArrow=none;html=1;exitX=0.821;exitY=0.342;exitDx=0;exitDy=0;exitPerimeter=0;" parent="1" source="426" target="483" edge="1">
                    <mxGeometry width="50" height="50" relative="1" as="geometry">
                        <mxPoint x="2695" y="1030" as="sourcePoint"/>
                        <mxPoint x="2715.168928456967" y="969.9133078067539" as="targetPoint"/>
                    </mxGeometry>
                </mxCell>
                <mxCell id="532" value="" style="endArrow=none;html=1;entryX=0.624;entryY=0.132;entryDx=0;entryDy=0;entryPerimeter=0;" parent="1" source="481" target="426" edge="1">
                    <mxGeometry width="50" height="50" relative="1" as="geometry">
                        <mxPoint x="2540" y="1020" as="sourcePoint"/>
                        <mxPoint x="2670" y="1020" as="targetPoint"/>
                    </mxGeometry>
                </mxCell>
                <mxCell id="533" value="" style="endArrow=none;html=1;entryX=0.413;entryY=0.934;entryDx=0;entryDy=0;entryPerimeter=0;" parent="1" source="480" target="426" edge="1">
                    <mxGeometry width="50" height="50" relative="1" as="geometry">
                        <mxPoint x="2705" y="1040" as="sourcePoint"/>
                        <mxPoint x="2660" y="1030" as="targetPoint"/>
                    </mxGeometry>
                </mxCell>
                <mxCell id="534" value="" style="endArrow=none;html=1;" parent="1" source="422" target="477" edge="1">
                    <mxGeometry width="50" height="50" relative="1" as="geometry">
                        <mxPoint x="2910" y="780" as="sourcePoint"/>
                        <mxPoint x="2900" y="770" as="targetPoint"/>
                    </mxGeometry>
                </mxCell>
                <mxCell id="535" value="" style="endArrow=none;html=1;" parent="1" source="472" target="420" edge="1">
                    <mxGeometry width="50" height="50" relative="1" as="geometry">
                        <mxPoint x="2893.9750405228933" y="763.9750405228938" as="sourcePoint"/>
                        <mxPoint x="2924.761448947192" y="743.3973506969296" as="targetPoint"/>
                    </mxGeometry>
                </mxCell>
                <mxCell id="536" value="" style="endArrow=none;html=1;exitX=0.5;exitY=1;exitDx=0;exitDy=0;entryX=1;entryY=1;entryDx=0;entryDy=0;" parent="1" source="473" target="420" edge="1">
                    <mxGeometry width="50" height="50" relative="1" as="geometry">
                        <mxPoint x="3017.6923076921967" y="983.8461538462425" as="sourcePoint"/>
                        <mxPoint x="2997.5" y="1000" as="targetPoint"/>
                    </mxGeometry>
                </mxCell>
                <mxCell id="537" value="" style="endArrow=none;html=1;entryX=0.75;entryY=1;entryDx=0;entryDy=0;" parent="1" source="475" target="420" edge="1">
                    <mxGeometry width="50" height="50" relative="1" as="geometry">
                        <mxPoint x="3027.6923076921967" y="993.8461538462425" as="sourcePoint"/>
                        <mxPoint x="3007.5" y="1010" as="targetPoint"/>
                    </mxGeometry>
                </mxCell>
                <mxCell id="538" value="" style="endArrow=none;html=1;" parent="1" source="420" target="474" edge="1">
                    <mxGeometry width="50" height="50" relative="1" as="geometry">
                        <mxPoint x="3037.6923076921967" y="1003.8461538462425" as="sourcePoint"/>
                        <mxPoint x="3017.5" y="1020" as="targetPoint"/>
                    </mxGeometry>
                </mxCell>
                <UserObject label="m" placeholders="1" name="Variable" id="540">
                    <mxCell style="text;html=1;strokeColor=none;fillColor=none;align=center;verticalAlign=middle;whiteSpace=wrap;overflow=hidden;" parent="1" vertex="1">
                        <mxGeometry x="2390" y="895" width="80" height="20" as="geometry"/>
                    </mxCell>
                </UserObject>
            </root>
        </mxGraphModel>
    </diagram>
</mxfile>